<svg class="marks" width="258" height="158" viewBox="0 0 258 158" version="1.1" xmlns="http://www.w3.org/2000/svg" xmlns:xlink="http://www.w3.org/1999/xlink"><g transform="translate(52,21)"><g class="mark-group role-frame root"><g transform="translate(0,0)"><path class="background" d="M0.5,0.5h200v100h-200Z" style="fill: none; stroke: #ddd;"></path><g><g class="mark-group role-axis"><g transform="translate(0.5,100.5)"><path class="background" d="M0,0h0v0h0Z" style="pointer-events: none; fill: none;"></path><g><g class="mark-rule role-axis-grid" style="pointer-events: none;"><line transform="translate(0,0)" x2="0" y2="-100" style="fill: none; stroke: #ddd; stroke-width: 1; opacity: 1;"></line><line transform="translate(40,0)" x2="0" y2="-100" style="fill: none; stroke: #ddd; stroke-width: 1; opacity: 1;"></line><line transform="translate(80,0)" x2="0" y2="-100" style="fill: none; stroke: #ddd; stroke-width: 1; opacity: 1;"></line><line transform="translate(120,0)" x2="0" y2="-100" style="fill: none; stroke: #ddd; stroke-width: 1; opacity: 1;"></line><line transform="translate(160,0)" x2="0" y2="-100" style="fill: none; stroke: #ddd; stroke-width: 1; opacity: 1;"></line><line transform="translate(200,0)" x2="0" y2="-100" style="fill: none; stroke: #ddd; stroke-width: 1; opacity: 1;"></line></g></g></g></g><g class="mark-rect role-mark marks"><path d="M0,1h19.98v18h-19.98Z" style="fill: #4c78a8;"></path><path d="M0,81h21.62v18h-21.62Z" style="fill: #4c78a8;"></path><path d="M0,41h23.22v18h-23.22Z" style="fill: #4c78a8;"></path><path d="M0,21h23.4v18h-23.4Z" style="fill: #4c78a8;"></path><path d="M0,61h24.08v18h-24.08Z" style="fill: #4c78a8;"></path></g><g class="mark-group role-axis"><g transform="translate(0.5,100.5)"><path class="background" d="M0,0h0v0h0Z" style="pointer-events: none; fill: none;"></path><g><g class="mark-rule role-axis-tick" style="pointer-events: none;"><line transform="translate(0,0)" x2="0" y2="5" style="fill: none; stroke: #888; stroke-width: 1; opacity: 1;"></line><line transform="translate(40,0)" x2="0" y2="5" style="fill: none; stroke: #888; stroke-width: 1; opacity: 1;"></line><line transform="translate(80,0)" x2="0" y2="5" style="fill: none; stroke: #888; stroke-width: 1; opacity: 1;"></line><line transform="translate(120,0)" x2="0" y2="5" style="fill: none; stroke: #888; stroke-width: 1; opacity: 1;"></line><line transform="translate(160,0)" x2="0" y2="5" style="fill: none; stroke: #888; stroke-width: 1; opacity: 1;"></line><line transform="translate(200,0)" x2="0" y2="5" style="fill: none; stroke: #888; stroke-width: 1; opacity: 1;"></line></g><g class="mark-text role-axis-label" style="pointer-events: none;"><text text-anchor="start" transform="translate(0,15)" style="font-family: sans-serif; font-size: 10px; fill: #000; opacity: 1;">0</text><text text-anchor="middle" transform="translate(40,15)" style="font-family: sans-serif; font-size: 10px; fill: #000; opacity: 1;">20</text><text text-anchor="middle" transform="translate(80,15)" style="font-family: sans-serif; font-size: 10px; fill: #000; opacity: 1;">40</text><text text-anchor="middle" transform="translate(120,15)" style="font-family: sans-serif; font-size: 10px; fill: #000; opacity: 1;">60</text><text text-anchor="middle" transform="translate(160,15)" style="font-family: sans-serif; font-size: 10px; fill: #000; opacity: 1;">80</text><text text-anchor="end" transform="translate(200,15)" style="font-family: sans-serif; font-size: 10px; fill: #000; opacity: 1;">100</text></g><g class="mark-rule role-axis-domain" style="pointer-events: none;"><line transform="translate(0,0)" x2="200" y2="0" style="fill: none; stroke: #888; stroke-width: 1; opacity: 1;"></line></g><g class="mark-text role-axis-title" style="pointer-events: none;"><text text-anchor="middle" transform="translate(100,30)" style="font-family: sans-serif; font-size: 11px; font-weight: bold; fill: #000; opacity: 1;">Percent Purchased</text></g></g></g></g><g class="mark-group role-axis"><g transform="translate(0.5,0.5)"><path class="background" d="M0,0h0v0h0Z" style="pointer-events: none; fill: none;"></path><g><g class="mark-rule role-axis-tick" style="pointer-events: none;"><line transform="translate(0,9)" x2="-5" y2="0" style="fill: none; stroke: #888; stroke-width: 1; opacity: 1;"></line><line transform="translate(0,29)" x2="-5" y2="0" style="fill: none; stroke: #888; stroke-width: 1; opacity: 1;"></line><line transform="translate(0,49)" x2="-5" y2="0" style="fill: none; stroke: #888; stroke-width: 1; opacity: 1;"></line><line transform="translate(0,69)" x2="-5" y2="0" style="fill: none; stroke: #888; stroke-width: 1; opacity: 1;"></line><line transform="translate(0,89)" x2="-5" y2="0" style="fill: none; stroke: #888; stroke-width: 1; opacity: 1;"></line></g><g class="mark-text role-axis-label" style="pointer-events: none;"><text text-anchor="end" transform="translate(-7,12)" style="font-family: sans-serif; font-size: 10px; fill: #000; opacity: 1;">mon</text><text text-anchor="end" transform="translate(-7,32)" style="font-family: sans-serif; font-size: 10px; fill: #000; opacity: 1;">tue</text><text text-anchor="end" transform="translate(-7,52)" style="font-family: sans-serif; font-size: 10px; fill: #000; opacity: 1;">wed</text><text text-anchor="end" transform="translate(-7,72)" style="font-family: sans-serif; font-size: 10px; fill: #000; opacity: 1;">thu</text><text text-anchor="end" transform="translate(-7,92)" style="font-family: sans-serif; font-size: 10px; fill: #000; opacity: 1;">fri</text></g><g class="mark-rule role-axis-domain" style="pointer-events: none;"><line transform="translate(0,0)" x2="0" y2="100" style="fill: none; stroke: #888; stroke-width: 1; opacity: 1;"></line></g><g class="mark-text role-axis-title" style="pointer-events: none;"><text text-anchor="middle" transform="translate(-35,50) rotate(-90) translate(0,-2)" style="font-family: sans-serif; font-size: 11px; font-weight: bold; fill: #000; opacity: 1;">Day of the week</text></g></g></g></g></g></g></g></g></svg>